# xmcd
#
# Track frame offsets: 
#        183
#        19945
#        39035
#        64220
#        83283
#        104833
#        113645
#        136420
#        158920
#        184383
#        197470
#        212433
#
# Disc length: 3055 seconds
#
# Revision: 1
# Processed by: cddbd v1.5.2PL0 Copyright (c) Steve Scherf et al.
# Submitted via: ExactAudioCopy v0.99pb5
#
DISCID=990bed0c
DTITLE=East - Taking The Wheel (330041-2)
DYEAR=1992
DGENRE=Progressive Rock
TTITLE0=Taking The Wheel
TTITLE1=Parachuting My Love
TTITLE2=A Telexed Message
TTITLE3=Wind Of Change
TTITLE4=Ode To Existence
TTITLE5=Tess
TTITLE6=The Party Is Over
TTITLE7=I Can't Keep Up
TTITLE8=The Harvest Moon
TTITLE9=Kudos
TTITLE10=It Doesn't Take Much
TTITLE11=Survivors
EXTD=
EXTT0=
EXTT1=
EXTT2=
EXTT3=
EXTT4=
EXTT5=
EXTT6=
EXTT7=
EXTT8=
EXTT9=
EXTT10=
EXTT11=
PLAYORDER=
